<mxfile host="app.diagrams.net" modified="2022-07-26T11:11:46.915Z" agent="5.0 (Macintosh; Intel Mac OS X 10_15_7) AppleWebKit/537.36 (KHTML, like Gecko) Chrome/103.0.0.0 Safari/537.36" etag="xhpxkXN41POceahvtKRa" version="20.0.4" type="github">
  <diagram id="x_euS4OiCh0xsqQVf86B" name="Page-1">
    <mxGraphModel dx="946" dy="531" grid="1" gridSize="10" guides="1" tooltips="1" connect="1" arrows="1" fold="1" page="1" pageScale="1" pageWidth="850" pageHeight="1100" math="0" shadow="0">
      <root>
        <mxCell id="0" />
        <mxCell id="1" parent="0" />
        <mxCell id="dMt9pF4eRcUQxnRCVYJ3-1" value="" style="rounded=0;whiteSpace=wrap;html=1;fillColor=#f5f5f5;strokeColor=#666666;fontColor=#333333;" vertex="1" parent="1">
          <mxGeometry x="120" y="80" width="560" height="600" as="geometry" />
        </mxCell>
        <mxCell id="dMt9pF4eRcUQxnRCVYJ3-3" value="kube-apiserver" style="ellipse;whiteSpace=wrap;html=1;aspect=fixed;fillColor=#dae8fc;strokeColor=#6c8ebf;" vertex="1" parent="1">
          <mxGeometry x="500" y="110" width="100" height="100" as="geometry" />
        </mxCell>
        <mxCell id="dMt9pF4eRcUQxnRCVYJ3-4" value="GPS" style="rounded=1;whiteSpace=wrap;html=1;fillColor=#fff2cc;strokeColor=#d6b656;" vertex="1" parent="1">
          <mxGeometry x="160" y="115" width="150" height="90" as="geometry" />
        </mxCell>
        <mxCell id="dMt9pF4eRcUQxnRCVYJ3-25" value="kubelet" style="ellipse;whiteSpace=wrap;html=1;aspect=fixed;fillColor=#dae8fc;strokeColor=#6c8ebf;" vertex="1" parent="1">
          <mxGeometry x="500" y="320" width="100" height="100" as="geometry" />
        </mxCell>
        <mxCell id="dMt9pF4eRcUQxnRCVYJ3-28" value="complete&lt;br&gt;pod" style="ellipse;whiteSpace=wrap;html=1;aspect=fixed;fillColor=#dae8fc;strokeColor=#6c8ebf;" vertex="1" parent="1">
          <mxGeometry x="500" y="530" width="100" height="100" as="geometry" />
        </mxCell>
        <mxCell id="dMt9pF4eRcUQxnRCVYJ3-30" value="" style="endArrow=classic;startArrow=classic;html=1;rounded=0;entryX=0.5;entryY=1;entryDx=0;entryDy=0;exitX=0.5;exitY=0;exitDx=0;exitDy=0;" edge="1" parent="1" source="dMt9pF4eRcUQxnRCVYJ3-25" target="dMt9pF4eRcUQxnRCVYJ3-3">
          <mxGeometry width="50" height="50" relative="1" as="geometry">
            <mxPoint x="400" y="360" as="sourcePoint" />
            <mxPoint x="450" y="310" as="targetPoint" />
          </mxGeometry>
        </mxCell>
        <mxCell id="dMt9pF4eRcUQxnRCVYJ3-31" value="" style="endArrow=classic;startArrow=classic;html=1;rounded=0;entryX=0.5;entryY=1;entryDx=0;entryDy=0;exitX=0.5;exitY=0;exitDx=0;exitDy=0;" edge="1" parent="1">
          <mxGeometry width="50" height="50" relative="1" as="geometry">
            <mxPoint x="549.5" y="530" as="sourcePoint" />
            <mxPoint x="549.5" y="420" as="targetPoint" />
          </mxGeometry>
        </mxCell>
        <mxCell id="dMt9pF4eRcUQxnRCVYJ3-12" value="" style="group" vertex="1" connectable="0" parent="1">
          <mxGeometry x="360" y="115" width="90" height="30" as="geometry" />
        </mxCell>
        <mxCell id="dMt9pF4eRcUQxnRCVYJ3-7" value="kubecl logs pod" style="text;html=1;strokeColor=none;fillColor=none;align=center;verticalAlign=middle;whiteSpace=wrap;rounded=0;" vertex="1" parent="dMt9pF4eRcUQxnRCVYJ3-12">
          <mxGeometry width="90" height="30" as="geometry" />
        </mxCell>
        <mxCell id="dMt9pF4eRcUQxnRCVYJ3-33" value="" style="endArrow=classic;startArrow=classic;html=1;rounded=0;exitX=1;exitY=0.25;exitDx=0;exitDy=0;entryX=0.05;entryY=0.27;entryDx=0;entryDy=0;entryPerimeter=0;" edge="1" parent="1" source="dMt9pF4eRcUQxnRCVYJ3-4" target="dMt9pF4eRcUQxnRCVYJ3-3">
          <mxGeometry width="50" height="50" relative="1" as="geometry">
            <mxPoint x="400" y="130" as="sourcePoint" />
            <mxPoint x="500" y="138" as="targetPoint" />
          </mxGeometry>
        </mxCell>
        <mxCell id="dMt9pF4eRcUQxnRCVYJ3-34" value="" style="endArrow=classic;startArrow=classic;html=1;rounded=0;" edge="1" parent="1" source="dMt9pF4eRcUQxnRCVYJ3-1">
          <mxGeometry width="50" height="50" relative="1" as="geometry">
            <mxPoint x="400" y="130" as="sourcePoint" />
            <mxPoint x="450" y="80" as="targetPoint" />
          </mxGeometry>
        </mxCell>
        <mxCell id="dMt9pF4eRcUQxnRCVYJ3-35" value="" style="endArrow=classic;startArrow=classic;html=1;rounded=0;entryX=0.04;entryY=0.7;entryDx=0;entryDy=0;entryPerimeter=0;" edge="1" parent="1" target="dMt9pF4eRcUQxnRCVYJ3-3">
          <mxGeometry width="50" height="50" relative="1" as="geometry">
            <mxPoint x="310" y="180" as="sourcePoint" />
            <mxPoint x="450" y="145" as="targetPoint" />
          </mxGeometry>
        </mxCell>
        <mxCell id="dMt9pF4eRcUQxnRCVYJ3-37" value="" style="group" vertex="1" connectable="0" parent="1">
          <mxGeometry x="360" y="158" width="90" height="30" as="geometry" />
        </mxCell>
        <mxCell id="dMt9pF4eRcUQxnRCVYJ3-38" value="delete pod" style="text;html=1;strokeColor=none;fillColor=none;align=center;verticalAlign=middle;whiteSpace=wrap;rounded=0;" vertex="1" parent="dMt9pF4eRcUQxnRCVYJ3-37">
          <mxGeometry width="90" height="30" as="geometry" />
        </mxCell>
      </root>
    </mxGraphModel>
  </diagram>
</mxfile>
